<?xml version="1.0" standalone="no"?>
<!DOCTYPE svg PUBLIC "-//W3C//DTD SVG 1.1//EN" "http://www.w3.org/Graphics/SVG/1.1/DTD/svg11.dtd" >
<svg xmlns="http://www.w3.org/2000/svg">
<metadata></metadata>
<defs>
<font id="bauframedium" horiz-adv-x="376" >
<font-face units-per-em="2048" ascent="1536" descent="-512" />
<missing-glyph horiz-adv-x="804" />
<glyph unicode="&#xfb01;" horiz-adv-x="1091" d="M663 1337h-111q-63 0 -108.5 -34.5t-45.5 -93.5v-185h245v-122h-245v-902h-128v902h-168v122h168v185q0 110 79.5 176t202.5 66h111v-114zM834 1181q-33 0 -56.5 24t-23.5 57t23.5 57t56.5 24t57 -24t24 -57t-24 -57t-57 -24zM897 1024v-1024h-125v1024h125z" />
<glyph unicode="&#xfb02;" horiz-adv-x="1073" d="M663 1337h-111q-63 0 -108.5 -34.5t-45.5 -93.5v-185h245v-122h-245v-902h-128v902h-168v122h168v185q0 110 79.5 176t202.5 66h111v-114zM914 1434v-1434h-125v1434h125z" />
<glyph horiz-adv-x="2048" />
<glyph horiz-adv-x="2048" />
<glyph unicode="&#xd;" horiz-adv-x="2048" />
<glyph unicode=" "  horiz-adv-x="804" />
<glyph unicode="&#x09;" horiz-adv-x="804" />
<glyph unicode="&#xa0;" horiz-adv-x="804" />
<glyph unicode="!" horiz-adv-x="374" d="M252 327h-128v1109h128v-1109zM188 -20q-36 0 -61 24t-25 60q0 35 25.5 60.5t60.5 25.5t60 -25.5t25 -60.5q0 -36 -24.5 -60t-60.5 -24z" />
<glyph unicode="&#x22;" horiz-adv-x="624" d="M190 1452q35 0 60 -25.5t25 -60.5q0 -14 -3 -30.5t-13.5 -41t-27 -43.5t-49 -33t-74.5 -14q49 36 69 79q-31 5 -51.5 28t-20.5 55q0 35 25 60.5t60 25.5zM439 1452q35 0 60 -25.5t25 -60.5q0 -14 -3 -30.5t-13.5 -41t-27 -43.5t-49 -33t-74.5 -14q47 35 68 79 q-31 5 -51.5 28t-20.5 55q0 35 25.5 60.5t60.5 25.5z" />
<glyph unicode="#" horiz-adv-x="1378" d="M920 553h271l-26 -124h-271l-91 -429h-128l91 429h-273l-91 -429h-128l91 429h-263l27 124h262l59 277h-262l28 124h260l103 480h128l-103 -480h273l103 480h127l-102 -480h272l-27 -124h-271zM578 830l-59 -277h273l59 277h-273z" />
<glyph unicode="$" horiz-adv-x="1079" d="M573 1536v-90q86 -7 167.5 -35t133.5 -78l-82 -90q-70 63 -219 75v-521l33 -11q367 -101 367 -423q0 -163 -112 -265t-288 -115v-96h-81v96q-103 9 -207.5 50.5t-170.5 115.5l82 93q51 -59 133.5 -91.5t162.5 -39.5v585l-28 9q-159 49 -249.5 138t-90.5 220 q0 76 22.5 139.5t59 105.5t85.5 73t99 46t102 20v89h81zM492 826v487q-31 -5 -60 -15t-61.5 -30t-56.5 -46t-39.5 -66.5t-15.5 -88.5q0 -164 233 -241zM573 669v-557q119 13 195 81.5t76 169.5q0 118 -62.5 189t-208.5 117z" />
<glyph unicode="%" horiz-adv-x="1462" d="M397 1452q115 0 197 -82t82 -197t-82 -197t-197 -82t-197 82t-82 197t82 197t197 82zM372 0h-120l833 1434h120zM397 1346q-76 0 -124 -48.5t-48 -124.5t48 -125t124 -49t124.5 49t48.5 125t-48.5 124.5t-124.5 48.5zM1066 540q116 0 197.5 -82t81.5 -197t-81.5 -197 t-197.5 -82t-197.5 82t-81.5 197t81.5 197t197.5 82zM1066 434q-76 0 -124 -48.5t-48 -124.5t48.5 -125.5t123.5 -49.5q76 0 124.5 49.5t48.5 125.5t-48.5 124.5t-124.5 48.5z" />
<glyph unicode="&#x26;" horiz-adv-x="1447" d="M1195 0l-154 184q-76 -90 -191.5 -144t-257.5 -58q-110 2 -203 38t-154 94.5t-95 131t-34 148.5q0 71 19.5 132t50.5 106t80.5 87t96.5 71t111 62q-109 128 -143 208.5t-30 155.5q6 107 101.5 171.5t243.5 64.5q144 0 241.5 -75t97.5 -202q0 -39 -10.5 -73.5t-40 -79.5 t-94.5 -95t-162 -100l360 -426q22 55 28 117h137q-13 -120 -72 -228l245 -290h-171zM420 1193q-2 -52 32 -115t123 -167q93 48 152 88t84 72.5t32 54t7 49.5q0 71 -59 115t-152 44q-100 -1 -158.5 -40.5t-60.5 -100.5zM960 279l-408 484q-64 -35 -101.5 -57.5t-84 -58.5 t-71.5 -69t-42.5 -80.5t-17.5 -101.5q0 -120 99.5 -205t257.5 -88q126 3 220 50.5t148 125.5z" />
<glyph unicode="'" d="M190 1451q35 0 60 -25.5t25 -60.5q0 -14 -3 -30.5t-13.5 -41t-27 -43.5t-49 -33t-74.5 -14q49 36 69 79q-31 5 -51.5 28t-20.5 55q0 35 25 60.5t60 25.5z" />
<glyph unicode="(" horiz-adv-x="743" d="M589 1510l50 -67q-74 -36 -145.5 -112t-131 -182t-96 -247t-36.5 -290t36.5 -289t97 -245t132 -181t145.5 -115l-52 -69q-85 32 -170 111.5t-156.5 193t-116 270t-44.5 324.5t44.5 326t116 272.5t156.5 193.5t170 106z" />
<glyph unicode=")" horiz-adv-x="743" d="M105 1443l50 67q85 -27 170 -106t156 -193.5t115.5 -272.5t44.5 -326t-44.5 -324.5t-115.5 -270t-156 -193t-170 -111.5l-53 69q74 39 145.5 115t132 181t97 245t36.5 289t-36.5 290t-96 247t-131 182t-144.5 112z" />
<glyph unicode="*" horiz-adv-x="958" d="M768 816l-99 -81l-185 240l-185 -240l-100 81l182 236l-279 120l60 113l252 -105v287h128v-288l256 106l59 -113l-274 -117z" />
<glyph unicode="+" horiz-adv-x="1103" d="M615 694h387v-125h-387v-387h-126v387h-387v125h387v387h126v-387z" />
<glyph unicode="," d="M190 148q35 0 60 -25t25 -60q0 -14 -3 -31t-13.5 -41.5t-27 -43.5t-49 -33t-74.5 -14q47 35 69 79q-31 5 -51.5 28.5t-20.5 55.5q0 35 25 60t60 25z" />
<glyph unicode="-" horiz-adv-x="790" d="M688 515h-586v125h586v-125z" />
<glyph unicode="." horiz-adv-x="374" d="M188 -20q-36 0 -61 24t-25 60q0 35 25.5 60.5t60.5 25.5t60 -25.5t25 -60.5q0 -36 -24.5 -60t-60.5 -24z" />
<glyph unicode="/" horiz-adv-x="983" d="M880 1434l-645 -1434h-133l646 1434h132z" />
<glyph unicode="0" horiz-adv-x="1382" d="M689 1370q149 0 270 -88t190.5 -249t69.5 -364q0 -189 -69 -345t-191 -245.5t-270 -89.5q-149 0 -269.5 89.5t-188 245t-67.5 345.5q0 203 68.5 364t188 249t268.5 88zM689 1241q-178 0 -285.5 -158t-107.5 -414q0 -158 48 -283t138 -197t207 -72q176 0 287.5 155.5 t111.5 396.5q0 257 -110.5 414.5t-288.5 157.5z" />
<glyph unicode="1" horiz-adv-x="516" d="M323 1351v-1351h-131v1351h131z" />
<glyph unicode="2" horiz-adv-x="1140" d="M240 1126l-89 89q185 155 422 158q185 2 302 -104q118 -104 117 -269q0 -65 -23 -116.5t-71 -92t-97.5 -68.5t-127.5 -63q-77 -35 -129.5 -64t-111.5 -75.5t-94.5 -98.5t-60 -128t-26.5 -169h741v-124h-878v107q3 115 32.5 210.5t73 160t112 121t130.5 91t147 72.5 q54 23 81.5 35.5t67 36t58.5 44.5t34 52.5t15 68.5q1 110 -76 179t-210 71q-195 2 -339 -124z" />
<glyph unicode="3" horiz-adv-x="1122" d="M210 1127l-94 92q196 156 446 156q176 0 293 -95.5t117 -259.5q0 -123 -69 -206t-184 -112q122 -28 195.5 -120.5t73.5 -231.5q0 -173 -120 -270.5t-308 -97.5q-250 0 -446 156l96 94q68 -57 156 -88.5t181 -31.5q137 -1 222.5 68t85.5 192q0 117 -88.5 189t-248.5 76 h-152v119l134 2q162 1 250.5 65t88.5 182q0 111 -82.5 176t-206.5 65q-199 0 -340 -119z" />
<glyph unicode="4" horiz-adv-x="1110" d="M892 365v-365h-128v366h-670v133l661 852h137v-861h102v-125h-102zM234 490h530v684z" />
<glyph unicode="5" horiz-adv-x="1124" d="M212 226l-90 -93q88 -69 201 -109t230 -40q182 -1 304.5 116.5t122.5 287.5q0 67 -14 129t-46.5 120.5t-80.5 101.5t-121 69t-163 26h-243v395h604v122h-730v-641h348q83 0 146 -24.5t100 -69t55 -100.5t18 -124q0 -124 -85.5 -204t-216.5 -79q-174 0 -339 117z" />
<glyph unicode="6" horiz-adv-x="1138" d="M896 1370v-126q-236 0 -408 -120q-96 -69 -157.5 -172t-77.5 -231q45 86 128.5 137.5t196.5 51.5q194 -1 316 -134t122 -329q0 -89 -29 -170.5t-83 -147.5t-141.5 -105.5t-195.5 -39.5q-188 0 -307 131t-147 332q-34 243 48 444.5t253 326.5q208 152 482 152zM566 785 q-103 0 -178 -47.5t-111 -122.5t-36 -166q17 -148 104.5 -244t220.5 -96q151 0 236 99.5t85 238.5q0 89 -35 164.5t-109.5 124.5t-176.5 49z" />
<glyph unicode="7" horiz-adv-x="1013" d="M322 0h-140l549 1227h-629v124h826z" />
<glyph unicode="8" horiz-adv-x="1157" d="M579 1375q48 0 99.5 -8.5t109 -33.5t102 -62t73.5 -100t29 -142q0 -120 -57 -202.5t-169 -121.5q119 -36 188.5 -130t69.5 -215q0 -94 -36.5 -168t-99.5 -119t-141.5 -68t-168.5 -23q-88 0 -166.5 23t-141 68t-99.5 119t-37 168q0 120 71.5 215t190.5 130 q-112 40 -170.5 122.5t-58.5 201.5q0 76 28 138t72 100t100.5 63.5t109 35t102.5 9.5zM579 1253q-37 0 -73 -7t-74 -24t-66.5 -43t-47 -67.5t-18.5 -93.5q0 -108 75 -170.5t204 -64.5q129 2 204.5 65t75.5 170q0 108 -74.5 170t-205.5 65zM582 625q-149 -1 -228.5 -73.5 t-79.5 -185.5q0 -60 20.5 -107t51.5 -75t73 -47t81 -26t79 -7q54 0 104 13t97.5 41t76 81.5t28.5 126.5q0 112 -80.5 184.5t-222.5 74.5z" />
<glyph unicode="9" horiz-adv-x="1191" d="M266 -16v125q216 0 382 107q104 69 172 175.5t89 241.5q-45 -86 -128 -138t-196 -52q-194 0 -316.5 134t-122.5 330q0 89 29 170.5t83.5 147.5t142 105.5t195.5 39.5q126 0 224.5 -63.5t154.5 -166.5t74 -233q34 -243 -48 -444.5t-253 -326.5q-207 -152 -482 -152z M596 1244q-151 0 -236.5 -99.5t-85.5 -237.5q0 -89 35 -164.5t110 -125t177 -49.5q153 0 239 98t86 239q-17 148 -104.5 243.5t-220.5 95.5z" />
<glyph unicode=":" horiz-adv-x="374" d="M188 706q35 0 60 -25t25 -60q0 -36 -25 -61t-60 -25t-60.5 25t-25.5 61q0 35 25.5 60t60.5 25zM188 151q35 0 60 -25t25 -60q0 -36 -25 -60.5t-60 -24.5q-36 0 -61 24.5t-25 60.5q0 35 25.5 60t60.5 25z" />
<glyph unicode=";" d="M189 703q35 0 60 -25t25 -60q0 -36 -25 -60.5t-60 -24.5q-36 0 -61 24.5t-25 60.5q0 35 25.5 60t60.5 25zM190 150q35 0 60 -25.5t25 -60.5q0 -14 -3 -30.5t-13.5 -41t-27 -43.5t-49 -33t-74.5 -14q48 36 69 78q-31 5 -51.5 28.5t-20.5 55.5q0 35 25 60.5t60 25.5z" />
<glyph unicode="&#x3c;" horiz-adv-x="921" d="M794 985l-495 -299l495 -298v-147l-666 403v86l666 402v-147z" />
<glyph unicode="=" horiz-adv-x="1103" d="M1002 744h-900v125h900v-125zM1002 412h-900v125h900v-125z" />
<glyph unicode="&#x3e;" horiz-adv-x="870" d="M768 730v-86l-666 -403v147l495 298l-495 299v147z" />
<glyph unicode="?" horiz-adv-x="1044" d="M191 1204l-89 90q181 152 415 157q175 5 293 -92q62 -48 96.5 -118t35.5 -156q1 -121 -65 -192t-195 -129q-43 -19 -67 -32t-54.5 -36.5t-45.5 -50.5t-26 -70t-11 -98h-133q0 72 14.5 128.5t36.5 93.5t61.5 69.5t74.5 52t91 44.5q36 16 60.5 28.5t51.5 32t43 40.5 t26.5 51.5t10.5 66.5q0 116 -87 182q-79 64 -204 62q-191 -2 -333 -124zM414 150q35 0 60 -25.5t25 -60.5q0 -36 -24.5 -60t-60.5 -24t-61 24t-25 60q0 35 25 60.5t61 25.5z" />
<glyph unicode="@" horiz-adv-x="1794" d="M990 -127l115 -116q-74 -15 -231 -15q-126 0 -230 22t-179 61t-132.5 97.5t-93.5 124.5t-58.5 149.5t-31.5 167t-9 180.5t9 179.5t32 165t60 148t95.5 123t136.5 95.5t185 59.5t238 21.5q109 0 201 -13.5t163 -37t128.5 -60t98 -78t70.5 -97t48.5 -110.5t29.5 -124 t15 -133t4 -141v-314q0 -108 -74 -175.5t-193 -67.5q-116 0 -194 60t-89 156q-104 -72 -236 -72q-176 0 -284 118t-108 310q0 200 107 313t285 113q137 0 236 -68v56h111v-728q1 -71 44.5 -108.5t124.5 -37.5q73 0 109.5 41.5t36.5 115.5v287q-1 87 -6.5 153.5t-22.5 139 t-45 125t-75.5 102t-113 80t-159.5 49t-212 18.5q-112 0 -202.5 -18t-156 -50t-114 -80.5t-78.5 -102.5t-48.5 -124t-25.5 -138.5t-7 -151.5t7 -152t25 -139.5t47 -126t76.5 -104.5t110.5 -81.5t151 -51t196 -18.5q86 0 113 3zM1091 318v487q-34 27 -92 41t-118 14 q-134 0 -208 -79t-74 -225q0 -144 75 -225t207 -81q56 0 116.5 19t93.5 49z" />
<glyph unicode="A" horiz-adv-x="1544" d="M1455 0h-139l-193 447h-701l-193 -447h-139l609 1434h147zM475 578h595l-297 700z" />
<glyph unicode="B" horiz-adv-x="1320" d="M217 1434h515q175 0 294 -104t119 -269q0 -107 -53 -187.5t-144 -125.5q119 -40 191.5 -135t72.5 -222q0 -169 -122 -280t-298 -111h-575v1434zM351 1307v-509h354q133 0 218 68t85 187t-86 186.5t-217 67.5h-354zM351 670v-542h420q130 0 217 75t87 196t-87.5 196 t-216.5 75h-420z" />
<glyph unicode="C" horiz-adv-x="1495" d="M1292 231l94 -87q-205 -162 -459 -162q-150 0 -286.5 58t-235.5 156t-157.5 234.5t-58.5 286.5t58.5 286.5t157.5 234.5t235.5 156t286.5 58q257 0 459 -162l-91 -90q-162 123 -368 123q-165 0 -304.5 -81t-220.5 -220.5t-81 -304.5t81 -305t220.5 -221.5t304.5 -81.5 q203 0 365 122z" />
<glyph unicode="D" horiz-adv-x="1648" d="M217 1434h504q150 0 286.5 -57t235.5 -153t157.5 -229t58.5 -278t-58.5 -278t-157.5 -229t-235.5 -153t-286.5 -57h-504v1434zM349 1306v-1178h372q165 0 304.5 79t220.5 214.5t81 295.5t-81 295.5t-220.5 214.5t-304.5 79h-372z" />
<glyph unicode="E" horiz-adv-x="1183" d="M1068 1310h-719v-504h711v-123h-711v-560h727v-123h-859v1434h851v-124z" />
<glyph unicode="F" horiz-adv-x="1171" d="M1064 1310h-715v-539h700v-123h-700v-648h-132v1434h847v-124z" />
<glyph unicode="G" horiz-adv-x="1562" d="M1359 684v-543q-202 -159 -458 -159q-200 0 -369.5 98t-268.5 267.5t-99 369.5t99 369.5t268.5 267.5t369.5 98q258 0 460 -162l-91 -90q-162 123 -369 123q-165 0 -304.5 -81t-220 -220.5t-80.5 -304.5q0 -124 47.5 -236.5t128.5 -193.5t193 -129t236 -48q179 0 326 98 v476h132z" />
<glyph unicode="H" horiz-adv-x="1486" d="M1270 1434v-1434h-131v685h-790v-685h-132v1434h132v-621h790v621h131z" />
<glyph unicode="I" horiz-adv-x="565" d="M349 1434v-1434h-132v1434h132z" />
<glyph unicode="J" horiz-adv-x="968" d="M752 1434v-843q0 -195 -81.5 -334.5t-218 -207.5t-312.5 -67h-50v130h51q213 -1 345.5 122.5t132.5 356.5v843h133z" />
<glyph unicode="K" horiz-adv-x="1308" d="M654 883l566 -883h-156l-499 781l-216 -247v-534h-132v1434h132v-722l630 722h156z" />
<glyph unicode="L" horiz-adv-x="1132" d="M349 125h694v-125h-826v1434h132v-1309z" />
<glyph unicode="M" horiz-adv-x="1851" d="M1634 0h-131v1252l-577 -723l-577 723v-1252h-132v1434h148l561 -713l560 713h148v-1434z" />
<glyph unicode="N" horiz-adv-x="1527" d="M1180 212v1222h131v-1433h-148l-814 1223v-1224h-132v1434h148z" />
<glyph unicode="O" horiz-adv-x="1802" d="M901 1452q150 0 286.5 -58t235.5 -156t157.5 -234.5t58.5 -286.5t-58.5 -286.5t-157.5 -234.5t-235.5 -156t-286.5 -58q-200 0 -369.5 98t-268.5 267.5t-99 369.5t99 369.5t268.5 267.5t369.5 98zM901 1323q-165 0 -304.5 -81t-220 -220.5t-80.5 -304.5 q0 -124 47.5 -236.5t128.5 -193.5t193 -129t236 -48t236.5 48t193.5 129t129 193.5t48 236.5q0 165 -81 304.5t-221 220.5t-305 81z" />
<glyph unicode="P" horiz-adv-x="1298" d="M218 1434h474q201 1 322.5 -114.5t121.5 -307.5q0 -190 -120 -306.5t-322 -116.5h-346v-589h-130v1434zM349 1306v-589h338q143 0 230.5 81t87.5 214q0 131 -90.5 212.5t-227.5 81.5h-338z" />
<glyph unicode="Q" horiz-adv-x="1804" d="M1547 -16l-171 170q-204 -172 -475 -172q-200 0 -369.5 98t-268.5 267.5t-99 369.5t99 369.5t268.5 267.5t369.5 98q150 0 286.5 -58t235.5 -156t157.5 -234.5t58.5 -286.5q0 -266 -171 -471l171 -169zM296 717q0 -124 47.5 -236.5t128.5 -193.5t193 -129t236 -48 t236.5 48t193.5 129t129 193.5t48 236.5q0 165 -81 304.5t-221 220.5t-305 81t-304.5 -81t-220 -220.5t-80.5 -304.5z" />
<glyph unicode="R" horiz-adv-x="1353" d="M218 1434h483q196 0 315 -109.5t119 -290.5q0 -161 -97.5 -267t-260.5 -127l413 -640h-154l-407 633h-281v-633h-130v1434zM348 1306v-545h351q135 0 220 75t85 198q0 122 -87 197t-217 75h-352z" />
<glyph unicode="S" horiz-adv-x="1071" d="M589 664l-92 32q-177 47 -277 141.5t-100 237.5q0 92 35 166t94.5 119t133 69t154.5 24q95 0 183.5 -31t149.5 -89l-82 -90q-48 43 -114.5 64.5t-136.5 19.5q-118 -3 -200 -67.5t-82 -180.5q0 -99 71 -165.5t216 -108.5l102 -32q159 -51 242 -148.5t83 -252.5 q0 -119 -63 -208.5t-161 -134t-216 -47.5q-119 -2 -230.5 40.5t-188.5 126.5l82 93q63 -71 152 -104t182 -29q130 5 222 76t92 187q0 112 -60 179t-191 113z" />
<glyph unicode="T" horiz-adv-x="1183" d="M1093 1310h-436v-1310h-131v1310h-436v124h1003v-124z" />
<glyph unicode="U" horiz-adv-x="1544" d="M1344 1434v-906q0 -146 -72.5 -271t-203 -200t-288.5 -75q-119 0 -224 44t-179 118t-116.5 174.5t-42.5 209.5v906h134v-892q0 -180 124.5 -305.5t303.5 -125.5t304.5 125.5t125.5 305.5v892h134z" />
<glyph unicode="V" horiz-adv-x="1529" d="M839 0h-147l-602 1434h135l540 -1265l540 1265h136z" />
<glyph unicode="W" horiz-adv-x="2185" d="M1617 0h-146l-378 1227l-379 -1227h-145l-479 1434h136l416 -1226l375 1226h152l374 -1226l416 1226h137z" />
<glyph unicode="X" horiz-adv-x="1329" d="M665 652l-429 -652h-146l492 749l-450 685h148l388 -592l383 592h147l-448 -689l490 -745h-148z" />
<glyph unicode="Y" horiz-adv-x="1372" d="M751 601v-601h-131v600l-530 834h145l451 -709l452 709h145z" />
<glyph unicode="Z" horiz-adv-x="1179" d="M1065 1310l-807 -1187h813v-123h-962v124l807 1186h-781v124h930v-124z" />
<glyph unicode="[" horiz-adv-x="464" d="M230 -162h133v-125h-261v1823h261v-125h-133v-1573z" />
<glyph unicode="\" horiz-adv-x="983" d="M880 0h-132l-646 1434h133z" />
<glyph unicode="]" horiz-adv-x="464" d="M363 -287h-261v125h134v1573h-134v125h261v-1823z" />
<glyph unicode="^" horiz-adv-x="1091" d="M990 695h-146l-298 494l-297 -494h-147l402 665h85z" />
<glyph unicode="_" horiz-adv-x="1103" d="M1002 -256h-900v125h900v-125z" />
<glyph unicode="`" horiz-adv-x="516" d="M274 1434l140 -257h-121l-191 257h172z" />
<glyph unicode="a" horiz-adv-x="1132" d="M225 836l-51 100q141 106 389 106q209 0 322 -118t115 -324v-600h-116v108q-53 -54 -155 -89t-202 -35q-187 -1 -293 93t-106 269q0 160 110 255.5t313 94.5q175 -2 320 -79q-4 147 -86.5 226t-234.5 79q-210 0 -325 -86zM871 219v282q-127 76 -319 76q-148 -1 -222 -64 t-74 -170q0 -112 71 -172.5t212 -60.5q78 0 174 30.5t158 78.5z" />
<glyph unicode="b" horiz-adv-x="1212" d="M304 1434v-481q126 85 289 86q227 1 350.5 -132.5t122.5 -401.5q-3 -521 -472 -521q-84 0 -165 27.5t-136 74.5v-86h-117v1434h128zM304 837v-635q48 -47 124 -73t152 -26q190 0 272.5 100t82.5 302q0 412 -354 412q-172 0 -277 -80z" />
<glyph unicode="c" horiz-adv-x="1144" d="M916 189l90 -90q-145 -114 -328 -114q-143 0 -265 70t-193.5 192t-71.5 266t71.5 265.5t193.5 192t265 70.5q186 0 330 -115l-91 -90q-105 80 -239 80q-167 0 -284.5 -117.5t-117.5 -285.5t117.5 -285.5t284.5 -117.5q133 0 238 79z" />
<glyph unicode="d" horiz-adv-x="1212" d="M1037 0h-117v86q-55 -47 -135.5 -74.5t-164.5 -27.5q-469 0 -472 521q-1 268 122.5 401.5t350.5 132.5q162 -1 288 -86v481h128v-1434zM909 202v635q-105 80 -276 80q-355 0 -355 -412q0 -202 82.5 -302t272.5 -100q76 0 152 26t124 73z" />
<glyph unicode="e" horiz-adv-x="1290" d="M982 200l92 -89q-136 -127 -379 -127q-144 1 -268 65t-201.5 186.5t-77.5 276.5q0 143 70.5 264.5t192 192.5t265.5 71q207 0 347 -130q102 -95 125 -215q21 -113 -44 -175q-49 -47 -137 -47h-674q0 -157 116.5 -262t280.5 -105q191 0 292 94zM295 591h622q71 0 89 53.5 t-21 116.5q-37 67 -117.5 113.5t-191.5 46.5q-154 0 -262.5 -97t-118.5 -233z" />
<glyph unicode="f" horiz-adv-x="765" d="M663 1337h-111q-63 0 -108.5 -34.5t-45.5 -93.5v-185h245v-122h-245v-902h-128v902h-168v122h168v185q0 110 79.5 176t202.5 66h111v-114z" />
<glyph unicode="g" horiz-adv-x="1214" d="M222 -257l16 103q88 -45 172 -63.5t192 -16.5q115 1 179 30.5t95 100.5t36 200q-107 -101 -291 -103q-228 0 -351 129t-122 396q1 269 122 395t350 126q84 0 164.5 -27.5t135.5 -74.5v86h118v-907q-1 -250 -100.5 -359t-335.5 -106q-117 2 -206 22.5t-174 68.5zM909 218 v604q-48 47 -124 73t-152 26q-190 0 -272.5 -100t-82.5 -302q0 -195 84 -298.5t271 -103.5q72 0 146 26.5t130 74.5z" />
<glyph unicode="h" horiz-adv-x="1255" d="M960 0v494q0 220 -78.5 323t-266.5 103q-75 0 -155.5 -28t-143.5 -71v-821h-129v1434h125v-504q66 49 153 79.5t177 29.5q229 -1 338 -136t109 -410v-493h-129z" />
<glyph unicode="i" horiz-adv-x="489" d="M251 1181q-33 0 -57 24t-24 57t24 57t57 24t57 -24t24 -57t-24 -57t-57 -24zM314 1024v-1024h-125v1024h125z" />
<glyph unicode="j" horiz-adv-x="714" d="M458 1343q34 0 57.5 -24t23.5 -57t-23.5 -57t-57.5 -24q-33 0 -57 24t-24 57t24 57t57 24zM521 1024v-1077q-1 -140 -75 -222t-214 -81h-49v115h49q80 0 122 50.5t42 137.5v1077h125z" />
<glyph unicode="k" horiz-adv-x="1142" d="M315 375v-375h-128v1434h128v-874l468 464h171l-381 -387l476 -637h-152l-413 542z" />
<glyph unicode="l" horiz-adv-x="477" d="M312 1434v-1434h-125v1434h125z" />
<glyph unicode="m" horiz-adv-x="2017" d="M302 1024v-94q63 48 145.5 78t169.5 31q265 4 377 -170q82 72 192 120.5t212 49.5q232 1 342.5 -133.5t110.5 -412.5v-493h-128v494q0 220 -78.5 323.5t-264.5 102.5q-81 0 -177 -41t-168 -95q44 -111 44 -291v-493h-130v494q0 221 -79 324t-266 102q-75 -1 -155.5 -28.5 t-142.5 -70.5v-821h-130v1024h126z" />
<glyph unicode="n" horiz-adv-x="1245" d="M949 0v494q0 221 -78 324t-267 102q-75 -1 -154.5 -28.5t-143.5 -70.5v-821h-130v1024h126v-94q67 50 156 80t181 29q227 -4 333.5 -138.5t106.5 -407.5v-493h-130z" />
<glyph unicode="o" horiz-adv-x="1355" d="M678 1040q143 0 265 -70.5t193.5 -192t71.5 -265.5t-71.5 -266t-193.5 -192t-265 -70t-265 70t-193.5 192t-71.5 266t71.5 265.5t193.5 192t265 70.5zM678 914q-167 0 -284 -117t-117 -285t117 -285t284 -117t284 117t117 285t-117 285t-284 117z" />
<glyph unicode="p" horiz-adv-x="1212" d="M293 1024v-86q55 47 136 74.5t165 27.5q229 0 350 -126t122 -395q1 -268 -122.5 -401.5t-350.5 -133.5q-157 1 -289 92v-440h-128v1388h117zM304 822v-630q49 -39 125 -62t152 -23q354 0 354 412q0 202 -82.5 302t-272.5 100q-76 0 -152 -26t-124 -73z" />
<glyph unicode="q" horiz-adv-x="1212" d="M909 -364v440q-132 -91 -288 -92q-227 0 -350.5 133.5t-122.5 401.5q1 269 122 395t350 126q84 0 164.5 -27.5t135.5 -74.5v86h117v-1388h-128zM909 192v630q-48 47 -124 73t-152 26q-190 0 -272.5 -100t-82.5 -302q0 -412 355 -412q76 0 151.5 23t124.5 62z" />
<glyph unicode="r" horiz-adv-x="999" d="M302 1024v-169q70 83 166.5 133t199.5 51q126 2 238 -80l-91 -92q-85 57 -180 55q-177 -3 -329 -183v-739h-130v1024h126z" />
<glyph unicode="s" horiz-adv-x="843" d="M102 122l83 84q115 -97 231 -99q83 0 138.5 46t57.5 114q5 79 -42.5 130t-163.5 86q-141 38 -211 106.5t-70 182.5q0 119 87 194t207 76q77 1 139 -21t130 -70l-86 -85q-83 50 -170 50q-69 0 -121 -36.5t-55 -97.5q-4 -65 35 -108.5t140 -72.5q167 -48 239 -126t72 -207 q0 -125 -93 -206t-233 -81q-166 0 -314 141z" />
<glyph unicode="t" horiz-adv-x="745" d="M379 1024h264v-122h-265v-677q0 -59 45.5 -93.5t108.5 -34.5h111v-114h-111q-123 0 -202.5 66t-79.5 176v677h-148v122h148v260h129v-260z" />
<glyph unicode="u" horiz-adv-x="1263" d="M1087 0h-126v125q-160 -144 -368 -141q-220 4 -323 139t-103 408v492h129v-492q0 -222 75 -325t257 -102q83 1 169.5 35t159.5 97v787h130v-1023z" />
<glyph unicode="v" horiz-adv-x="1144" d="M637 0h-130l-412 1024h124l353 -871l353 871h125z" />
<glyph unicode="w" horiz-adv-x="1699" d="M1129 0l-279 837l-278 -836h-132l-345 1023h124l286 -836l279 836h133l279 -836l286 836h124l-345 -1024h-132z" />
<glyph unicode="x" horiz-adv-x="1030" d="M936 0h-152l-274 411l-263 -411h-152l341 516l-341 508h153l276 -415l260 415h152l-339 -520z" />
<glyph unicode="y" horiz-adv-x="1185" d="M1041 1024v-933q-6 -233 -115 -338t-347 -101q-117 2 -206.5 23t-173.5 68l15 103q85 -44 170 -62.5t195 -17.5q174 1 249 65.5t88 229.5v48q-65 -48 -149 -78t-173 -31q-232 -1 -343.5 133.5t-111.5 412.5v478h129v-478q0 -221 78.5 -323t265.5 -102q74 0 154.5 27.5 t144.5 69.5v806h130z" />
<glyph unicode="z" horiz-adv-x="913" d="M812 0h-710v112l541 789h-514v122h674v-114l-540 -788h549v-121z" />
<glyph unicode="{" horiz-adv-x="739" d="M638 1414h-88q-38 0 -63 -26t-25 -68v-462q0 -79 -45 -142t-119 -91q74 -29 119 -92t45 -142v-462q0 -42 25 -68t63 -26h88v-122h-159q-60 0 -102.5 44t-42.5 112v484q0 86 -63 145.5t-158 63.5h-11v125h11q95 3 158 63t63 147v483q0 68 42.5 112t102.5 44h159v-122z" />
<glyph unicode="|" horiz-adv-x="333" d="M231 -123h-129v1557h129v-1557z" />
<glyph unicode="}" horiz-adv-x="739" d="M102 1536h159q60 0 102.5 -44t42.5 -112v-484q0 -86 63.5 -146t158.5 -63h10v-125h-10q-95 -4 -158.5 -63.5t-63.5 -145.5v-484q0 -68 -42.5 -112t-102.5 -44h-159v122h89q38 0 63 26t25 68v462q0 79 44.5 142t118.5 92q-74 28 -118.5 91t-44.5 142v462q0 42 -25 68 t-63 26h-89v122z" />
<glyph unicode="~" horiz-adv-x="954" d="M854 556l-71 -71q-95 -95 -256 1l-126 74q-36 21 -69.5 30t-68.5 3t-60 -31l-101 -101v142l72 72q33 33 78.5 41t89 -4t89.5 -39l125 -73q124 -74 198 -1l100 99v-142z" />
<glyph unicode="&#xa2;" horiz-adv-x="1134" d="M677 1231v-191q185 -4 323 -114l-91 -91q-99 76 -232 78v-800q131 2 230 77l91 -91q-133 -104 -321 -113v-187h-81v192q-194 26 -325 174.5t-131 347.5t131 347.5t325 175.5v195h81zM596 120v786q-141 -24 -234.5 -135t-93.5 -258t93.5 -258t234.5 -135z" />
<glyph unicode="&#xa3;" horiz-adv-x="1280" d="M287 782l-36 211q-17 102 1 182.5t60 130.5t104.5 83t127 46t135.5 13q246 0 436 -153l-83 -82q-156 113 -344 108q-37 -1 -69.5 -6t-67 -16.5t-60.5 -29t-50 -44t-35.5 -63t-17.5 -84t5 -107.5l31 -189h401v-123h-381l23 -137q56 -321 -95 -408h806v-125h-1072v125 q157 9 207.5 106t17.5 292l-24 147h-201v123h181z" />
<glyph unicode="&#xa5;" horiz-adv-x="1327" d="M877 883h255v-124h-341l-61 -102v-41h402v-124h-406v-492h-128v492h-401v124h399v41l-61 102h-338v124h252l-379 551h146l446 -656l449 656h146z" />
<glyph unicode="&#xa7;" horiz-adv-x="931" d="M801 1193l-51 -103q-46 28 -129.5 44.5t-159.5 16.5q-103 0 -157.5 -35.5t-54.5 -95.5q0 -94 140 -144l190 -69q123 -46 187 -123.5t64 -172.5q0 -106 -67 -184q66 -79 66 -182q0 -124 -95.5 -205t-257.5 -81q-116 0 -214.5 28t-156.5 63l47 92q111 -55 291 -55 q111 0 169.5 43t58.5 115q0 61 -35.5 105.5t-131.5 79.5l-207 76q-97 35 -143.5 98t-46.5 140q0 114 87 185q-40 33 -63 84t-23 109q0 110 89 183t249 73q109 0 203.5 -25t151.5 -60zM516 697l-187 68q-38 -13 -62 -44t-24 -77q0 -87 112 -128l180 -65q89 -38 100 -46 q45 56 42 120q-3 115 -161 172z" />
<glyph unicode="&#xa8;" horiz-adv-x="804" d="M188 1275q-35 0 -60.5 25t-25.5 60t25.5 60t60.5 25q36 0 60.5 -25t24.5 -60t-24.5 -60t-60.5 -25zM616 1275q-35 0 -60 25t-25 60t25 60t60 25q36 0 61 -25t25 -60t-25 -60t-61 -25z" />
<glyph unicode="&#xa9;" horiz-adv-x="1675" d="M838 1452q200 0 369 -98.5t267.5 -267.5t98.5 -369t-98.5 -369t-267.5 -267.5t-369 -98.5q-150 0 -286 58t-234.5 156.5t-157 234.5t-58.5 286t58.5 286t157 234.5t234.5 156.5t286 58zM838 1333q-168 0 -309.5 -82.5t-224 -224.5t-82.5 -309q0 -168 82.5 -309.5 t224 -224t309.5 -82.5t309.5 82.5t224 224t82.5 309.5q0 167 -82.5 309t-224 224.5t-309.5 82.5zM1001 516l88 -88q-106 -88 -243 -88q-155 0 -266.5 111t-111.5 267q0 155 111.5 266.5t266.5 111.5q139 0 245 -91l-88 -86q-69 53 -154 53q-106 0 -179.5 -74t-73.5 -180 t73.5 -179.5t179.5 -73.5q85 0 152 51z" />
<glyph unicode="&#xab;" horiz-adv-x="907" d="M445 737l-246 -165l246 -163v-139l-343 245v116l343 245v-139zM804 737l-245 -165l246 -163v-139l-343 245v116l342 245v-139z" />
<glyph unicode="&#xad;" horiz-adv-x="790" d="M688 515h-586v125h586v-125z" />
<glyph unicode="&#xae;" horiz-adv-x="1675" d="M838 1452q200 0 369 -98.5t267.5 -267.5t98.5 -369t-98.5 -369t-267.5 -267.5t-369 -98.5q-150 0 -286 58t-234.5 156.5t-157 234.5t-58.5 286t58.5 286t157 234.5t234.5 156.5t286 58zM838 1333q-168 0 -309.5 -82.5t-224 -224.5t-82.5 -309q0 -168 82.5 -309.5 t224 -224t309.5 -82.5t309.5 82.5t224 224t82.5 309.5q0 167 -82.5 309t-224 224.5t-309.5 82.5zM598 1094h255q102 0 166.5 -59.5t64.5 -151.5q0 -74 -44.5 -128t-117.5 -72l208 -321h-119l-186 309h-120v-309h-107v732zM706 995v-225h146q55 0 89.5 30t34.5 83 q0 52 -34.5 82t-89.5 30h-146z" />
<glyph unicode="&#xb0;" horiz-adv-x="761" d="M381 1451q116 0 197.5 -81.5t81.5 -196.5q0 -116 -81.5 -196.5t-197.5 -80.5q-115 0 -197 80.5t-82 196.5q0 115 82 196.5t197 81.5zM381 1325q-63 0 -107 -44.5t-44 -107.5t44 -107t107 -44q62 0 106.5 44t44.5 107t-44.5 107.5t-106.5 44.5z" />
<glyph unicode="&#xb4;" horiz-adv-x="516" d="M223 1177h-121l141 257h171z" />
<glyph unicode="&#xb6;" horiz-adv-x="1228" d="M1127 1309h-78v-1643h-128v1643h-215v-1643h-128v965q-241 0 -368 104t-127 289q0 219 122.5 314.5t377.5 95.5h544v-125z" />
<glyph unicode="&#xb7;" horiz-adv-x="374" d="M188 557q-36 0 -61 24.5t-25 60.5q0 35 25.5 60t60.5 25t60 -25t25 -60q0 -36 -25 -60.5t-60 -24.5z" />
<glyph unicode="&#xb8;" horiz-adv-x="530" d="M257 -92h19q73 0 112.5 -41t39.5 -103q0 -61 -43 -104.5t-112 -43.5h-171v76h164q39 0 59.5 21.5t20.5 49.5q0 32 -19.5 54t-60.5 22h-83v161h74v-92z" />
<glyph unicode="&#xbb;" horiz-adv-x="907" d="M445 631v-116l-343 -245v139l246 163l-246 165v139zM805 631v-115l-343 -246v139l245 163l-245 165v139z" />
<glyph unicode="&#x2c6;" horiz-adv-x="839" d="M738 1159h-146l-172 195l-172 -195h-146l253 275h131z" />
<glyph unicode="&#x2da;" horiz-adv-x="622" d="M310 1434q86 0 148 -61t62 -146q0 -87 -61.5 -148.5t-148.5 -61.5t-147.5 61t-60.5 149q0 85 60.5 146t147.5 61zM311 1331q-44 0 -74 -30.5t-30 -73.5q0 -45 30 -76t74 -31q43 0 73.5 31.5t30.5 75.5q0 42 -30.5 73t-73.5 31z" />
<glyph unicode="&#x2dc;" horiz-adv-x="763" d="M662 1289l-48 -47q-27 -27 -63 -33t-67.5 2.5t-62.5 27.5l-93 54q-92 53 -140 5l-86 -86v125l60 60q42 36 89.5 33.5t98.5 -33.5l92 -55q93 -53 146 0l74 73v-126z" />
<glyph unicode="&#x401;" horiz-adv-x="1183" d="M417 1685q-35 0 -60 25t-25 60t25 60t60 25q36 0 61 -25t25 -60t-25 -60t-61 -25zM846 1685q-35 0 -60 25t-25 60t25 60t60 25q36 0 60.5 -25t24.5 -60t-24.5 -60t-60.5 -25zM1068 1310h-719v-504h711v-123h-711v-560h727v-123h-859v1434h851v-124z" />
<glyph unicode="&#x410;" horiz-adv-x="1544" d="M1455 0h-139l-193 447h-701l-193 -447h-139l609 1434h147zM475 578h595l-297 700z" />
<glyph unicode="&#x411;" horiz-adv-x="1263" d="M349 788h381q193 0 309 -111t116 -289q0 -180 -118 -290.5t-309 -109.5h-511v1446h844v-128h-712v-518zM349 117h378q126 0 211.5 76t85.5 195q0 120 -83.5 195.5t-213.5 75.5h-378v-542z" />
<glyph unicode="&#x412;" horiz-adv-x="1320" d="M217 1444h515q175 0 294 -105t119 -273q0 -108 -53 -190.5t-144 -128.5q119 -41 191.5 -137t72.5 -225q0 -172 -122 -285t-298 -113h-575v1457zM351 1316v-518h354q131 0 217 69t86 190t-86 190t-217 69h-354zM351 669v-553h420q130 0 217 76.5t87 199.5t-87.5 200 t-216.5 77h-420z" />
<glyph unicode="&#x413;" horiz-adv-x="1175" d="M349 1306v-1305h-132v1433h869v-128h-737z" />
<glyph unicode="&#x414;" horiz-adv-x="1673" d="M1367 125h136v-379h-125v254h-1163v-254h-125v379h73q130 11 212.5 129t100.5 327l74 853h817v-1309zM673 1306l-64 -725q-28 -324 -189 -456h816v1181h-563z" />
<glyph unicode="&#x415;" horiz-adv-x="1183" d="M1068 1310h-719v-504h711v-123h-711v-560h727v-123h-859v1434h851v-124z" />
<glyph unicode="&#x416;" horiz-adv-x="2052" d="M1807 0l-499 781l-216 -247v-534h-132v534l-215 247l-499 -781h-156l566 883l-482 551h157l629 -723v723h132v-723l630 723h157l-482 -551l566 -883h-156z" />
<glyph unicode="&#x417;" horiz-adv-x="1138" d="M197 1196l-93 92q202 162 462 162q182 0 303.5 -98.5t121.5 -268.5q0 -124 -72 -215t-191 -128q126 -36 203.5 -137t77.5 -242q0 -178 -125.5 -279.5t-320.5 -101.5q-259 0 -461 162l93 92q71 -60 164 -93t192 -33q146 -1 235.5 72.5t89.5 202.5q0 132 -93 210.5 t-261 80.5h-164v121h144q171 1 263 71t92 195q0 122 -86 191.5t-217 69.5q-207 0 -357 -126z" />
<glyph unicode="&#x418;" horiz-adv-x="1527" d="M1311 0h-131v1224l-815 -1224h-148v1434h132v-1222l814 1222h148v-1434z" />
<glyph unicode="&#x419;" horiz-adv-x="1527" d="M909 1843h128q-13 -103 -91 -171t-183 -68t-182.5 68t-90.5 171h128q12 -49 52.5 -81t92.5 -32q53 0 93.5 32t52.5 81zM1311 1434v-1434h-131v1224l-815 -1224h-148v1434h132v-1222l814 1222h148z" />
<glyph unicode="&#x41a;" horiz-adv-x="1308" d="M654 883l566 -883h-156l-499 781l-216 -247v-534h-132v1434h132v-722l630 722h156z" />
<glyph unicode="&#x41b;" horiz-adv-x="1531" d="M1322 0h-131v1306h-563l-64 -725q-23 -277 -152.5 -437.5t-320.5 -159.5v129q135 -1 228.5 124t111.5 344l74 852l13 1h804v-1434z" />
<glyph unicode="&#x41c;" horiz-adv-x="1851" d="M1634 0h-131v1252l-577 -723l-577 723v-1252h-132v1434h148l561 -713l560 713h148v-1434z" />
<glyph unicode="&#x41d;" horiz-adv-x="1486" d="M1270 0h-131v685h-790v-685h-132v1434h132v-621h789v621h132v-1434z" />
<glyph unicode="&#x41e;" horiz-adv-x="1802" d="M901 1452q150 0 286.5 -58t235.5 -156t157.5 -234.5t58.5 -286.5t-58.5 -286.5t-157.5 -234.5t-235.5 -156t-286.5 -58q-200 0 -369.5 98t-268.5 267.5t-99 369.5t99 369.5t268.5 267.5t369.5 98zM901 1323q-165 0 -304.5 -81t-220 -220.5t-80.5 -304.5 q0 -124 47.5 -236.5t128.5 -193.5t193 -129t236 -48t236.5 48t193.5 129t129 193.5t48 236.5q0 165 -81 304.5t-221 220.5t-305 81z" />
<glyph unicode="&#x41f;" horiz-adv-x="1486" d="M1270 0h-131v1306h-790v-1306h-132v1434h1053v-1434z" />
<glyph unicode="&#x420;" horiz-adv-x="1275" d="M218 1444h474q201 1 322.5 -114.5t121.5 -307.5q0 -190 -120 -306.5t-322 -116.5h-346v-599h-130v1444zM349 1316v-588h338q143 0 230.5 80.5t87.5 213.5q0 131 -90.5 212.5t-227.5 81.5h-338z" />
<glyph unicode="&#x421;" horiz-adv-x="1495" d="M1292 231l94 -87q-205 -162 -459 -162q-150 0 -286.5 58t-235.5 156t-157.5 234.5t-58.5 286.5t58.5 286.5t157.5 234.5t235.5 156t286.5 58q257 0 459 -162l-91 -90q-162 123 -368 123q-165 0 -304.5 -81t-220.5 -220.5t-81 -304.5t81 -305t220.5 -221.5t304.5 -81.5 q203 0 365 122z" />
<glyph unicode="&#x422;" horiz-adv-x="1183" d="M657 1306v-1306h-131v1305h-436v129h1003v-128h-436z" />
<glyph unicode="&#x423;" horiz-adv-x="1372" d="M473 0h-145l281 494l-519 940h145l451 -803l452 803h145z" />
<glyph unicode="&#x424;" horiz-adv-x="1814" d="M972 1275h275q192 1 309.5 -106.5t117.5 -286.5q0 -178 -116 -286t-310 -108h-275v-488h-132v488h-275q-194 0 -310 108t-116 286q0 179 117.5 286.5t309.5 106.5h275v159h130v-159zM841 1146h-272q-127 0 -212 -73t-85 -191q0 -120 83 -193t214 -73h272v530zM973 1146 v-530h272q131 0 214 73t83 193q0 118 -85 191t-212 73h-272z" />
<glyph unicode="&#x425;" horiz-adv-x="1329" d="M280 1434l388 -592l383 592h147l-448 -689l490 -745h-148l-427 652l-429 -652h-146l492 749l-450 685h148z" />
<glyph unicode="&#x426;" horiz-adv-x="1660" d="M1498 -242h-129v243h-1152v1433h132v-1305h790v1305h131v-1306h228v-370z" />
<glyph unicode="&#x427;" horiz-adv-x="1394" d="M1177 0h-127v516q-65 -53 -175 -88t-224 -35q-120 0 -212 25t-154 70.5t-102 114t-57 150.5t-17 184v497h133v-483q0 -109 19.5 -185t67 -132.5t130 -84t204.5 -27.5q96 0 209 35.5t174 88.5v788h131v-1434z" />
<glyph unicode="&#x428;" horiz-adv-x="2289" d="M2072 1h-1855v1433h132v-1305h730v1305h131v-1305h731v1305h131v-1433z" />
<glyph unicode="&#x429;" horiz-adv-x="2461" d="M2072 129h227v-371h-129v242h-1953v1434h132v-1305h730v1305h131v-1305h731v1305h131v-1305z" />
<glyph unicode="&#x42a;" horiz-adv-x="1538" d="M567 788h382q192 0 308.5 -112t116.5 -291q0 -181 -118 -293t-309 -111h-510v1324h-235v129h365v-646zM568 110h378q125 0 210.5 77.5t85.5 196.5q0 121 -83 198t-213 77h-378v-549z" />
<glyph unicode="&#x42b;" horiz-adv-x="1746" d="M348 788h382q192 0 308.5 -112t116.5 -291q0 -181 -118 -293t-309 -111h-509v1453h129v-646zM1531 0h-131v1434h131v-1434zM349 110h378q125 0 210.5 77.5t85.5 196.5q0 121 -83 198t-213 77h-378v-549z" />
<glyph unicode="&#x42c;" horiz-adv-x="1316" d="M348 788h382q192 0 308.5 -112t116.5 -291q0 -181 -118 -293t-309 -111h-509v1453h129v-646zM349 110h378q125 0 210.5 77.5t85.5 196.5q0 121 -83 198t-213 77h-378v-549z" />
<glyph unicode="&#x42d;" horiz-adv-x="1495" d="M200 1200l-90 90q202 162 459 162q200 0 369.5 -98t268.5 -267.5t99 -369.5t-99 -369.5t-268.5 -267.5t-369.5 -98q-255 0 -457 159l108 81q157 -112 349 -112q155 0 287.5 72t215 197t96.5 276h-709v129h707q-14 150 -96.5 273.5t-214.5 194.5t-286 71q-207 0 -369 -123 z" />
<glyph unicode="&#x42e;" horiz-adv-x="2314" d="M349 782h305q12 139 74.5 263t159.5 213.5t227 141.5t272 52q200 0 369.5 -98t268.5 -267.5t99 -369.5t-99 -369.5t-268.5 -267.5t-369.5 -98q-142 0 -272.5 52t-227.5 141.5t-159.5 214t-73.5 263.5h-305v-653h-132v1434h132v-652zM1387 110q165 0 304.5 81t220.5 221 t81 305t-81 304.5t-220.5 220.5t-304.5 81t-304.5 -81t-220.5 -220.5t-81 -304.5t81 -305t220.5 -221t304.5 -81z" />
<glyph unicode="&#x42f;" horiz-adv-x="1359" d="M1143 1444v-1444h-130v643h-281l-414 -643h-154l419 650q-163 21 -260.5 127t-97.5 267q0 181 119 290.5t315 109.5h484zM1012 1316h-352q-130 0 -216.5 -75t-86.5 -197q0 -123 84.5 -198t219.5 -75h351v545z" />
<glyph unicode="&#x430;" horiz-adv-x="1132" d="M225 836l-51 100q141 106 389 106q209 0 322 -118t115 -324v-600h-116v108q-53 -54 -155 -89t-202 -35q-187 -1 -293 93t-106 269q0 160 110 255.5t313 94.5q175 -2 320 -79q-4 148 -86.5 226.5t-234.5 78.5q-210 0 -325 -86zM871 219v282q-125 75 -319 75 q-148 -1 -222 -63.5t-74 -169.5q0 -112 71 -172.5t212 -60.5q78 0 174 30.5t158 78.5z" />
<glyph unicode="&#x431;" horiz-adv-x="1355" d="M1045 1579h130q0 -118 -83.5 -185.5t-221.5 -68.5h-199q-104 1 -190.5 -44.5t-140 -134.5t-56.5 -204v-130q51 100 159 164t235 64q143 0 265 -70.5t193.5 -192t71.5 -265.5t-71.5 -266t-193.5 -192t-265 -70t-265 70t-193.5 191.5t-71.5 264.5v358q0 137 41.5 248 t112 181t161.5 107t194 37h214q73 0 123.5 38t50.5 100zM678 914q-166 0 -283 -119t-117 -284q0 -167 116.5 -284t283.5 -117t284 117t117 285t-117 285t-284 117z" />
<glyph unicode="&#x432;" horiz-adv-x="1050" d="M177 1041h359q138 0 225 -78.5t87 -202.5q0 -76 -34.5 -136t-95.5 -93q79 -32 125.5 -104t46.5 -160q0 -126 -90.5 -204.5t-233.5 -78.5h-389v1057zM306 915v-328h223q85 0 137.5 43.5t52.5 123.5q0 77 -53.5 119t-136.5 42h-223zM306 459v-350h250q93 0 149 47t56 125 q0 79 -58.5 128.5t-145.5 49.5h-251z" />
<glyph unicode="&#x433;" horiz-adv-x="937" d="M306 898v-898h-130v1023h640v-125h-510z" />
<glyph unicode="&#x434;" horiz-adv-x="1288" d="M1067 126h101v-305h-128v180h-817v-180h-128v305h54q91 8 150.5 86t70.5 204l53 608h644v-898zM544 899l-44 -483q-19 -198 -113 -290h551v773h-394z" />
<glyph unicode="&#x435;" horiz-adv-x="1290" d="M982 200l92 -89q-136 -127 -379 -127q-144 1 -268 65t-201.5 186.5t-77.5 276.5q0 143 70.5 264.5t192 192.5t265.5 71q207 0 347 -130q102 -95 125 -215q21 -113 -44 -175q-49 -47 -137 -47h-674q0 -157 116.5 -262t280.5 -105q191 0 292 94zM295 591h622q65 0 85.5 45 t-8.5 102q-30 73 -114 128t-204 55q-154 0 -262.5 -97t-118.5 -233z" />
<glyph unicode="&#x436;" horiz-adv-x="1785" d="M1539 0l-413 542l-169 -167v-375h-128v375l-170 167l-413 -542h-151l476 637l-382 387h171l469 -464v464h128v-464l468 464h171l-382 -387l477 -637h-152z" />
<glyph unicode="&#x437;" horiz-adv-x="862" d="M198 838l-102 77q147 126 353 126q132 0 219 -70.5t87 -193.5q0 -89 -52 -154.5t-137 -92.5q91 -26 146.5 -98.5t55.5 -174.5q0 -129 -90.5 -202t-230.5 -73q-206 0 -352 117l89 89q94 -80 240 -80q95 -1 153.5 45t58.5 127q0 80 -56 131t-150 52h-131v118h119 q99 1 155 46.5t56 124.5q0 77 -57 120.5t-144 43.5q-134 0 -230 -78z" />
<glyph unicode="&#x438;" horiz-adv-x="1171" d="M995 1h-128v822l-553 -822h-138v1022h129v-823l552 823h138v-1022z" />
<glyph unicode="&#x439;" horiz-adv-x="1171" d="M758 1434h72q-12 -91 -82 -152t-164 -61q-93 0 -163 61t-82 152h72q13 -61 61.5 -100.5t111.5 -39.5q64 0 112.5 39.5t61.5 100.5zM995 1024v-1023h-128v822l-553 -822h-138v1022h129v-823l552 824h138z" />
<glyph unicode="&#x43a;" horiz-adv-x="1138" d="M311 375v-375h-128v1024h128v-464l468 464h171l-381 -387l476 -637h-152l-413 542z" />
<glyph unicode="&#x43b;" horiz-adv-x="1208" d="M1032 0l-128 1v898h-390l-45 -481q-20 -204 -115 -316t-259 -112v118q96 -1 163.5 84.5t80.5 225.5l54 606l17 1h622v-1025z" />
<glyph unicode="&#x43c;" horiz-adv-x="1435" d="M1261 1h-130v838l-412 -517l-413 518v-839h-130v1022h141l402 -510l401 510h141v-1022z" />
<glyph unicode="&#x43d;" horiz-adv-x="1157" d="M982 1h-128v472h-549v-472h-129v1022h129v-424h549v424h128v-1022z" />
<glyph unicode="&#x43e;" horiz-adv-x="1355" d="M678 1040q143 0 265 -70.5t193.5 -192t71.5 -265.5t-71.5 -266t-193.5 -192t-265 -70t-265 70t-193.5 192t-71.5 266t71.5 265.5t193.5 192t265 70.5zM678 914q-167 0 -284 -117t-117 -285t117 -285t284 -117t284 117t117 285t-117 285t-284 117z" />
<glyph unicode="&#x43f;" horiz-adv-x="1165" d="M989 1h-128v897h-556v-897h-129v1022h813v-1022z" />
<glyph unicode="&#x440;" horiz-adv-x="1212" d="M293 1024v-86q55 47 136 74.5t165 27.5q229 0 350 -126t122 -395q1 -268 -122.5 -401.5t-350.5 -133.5q-157 1 -289 92v-440h-128v1388h117zM304 822v-630q49 -39 125 -62t152 -23q354 0 354 412q0 202 -82.5 302t-272.5 100q-76 0 -152 -26t-124 -73z" />
<glyph unicode="&#x441;" horiz-adv-x="1144" d="M916 189l90 -90q-145 -114 -328 -114q-143 0 -265 70t-193.5 192t-71.5 266t71.5 265.5t193.5 192t265 70.5q186 0 330 -115l-91 -90q-105 80 -239 80q-167 0 -284.5 -117.5t-117.5 -285.5t117.5 -285.5t284.5 -117.5q133 0 238 79z" />
<glyph unicode="&#x442;" horiz-adv-x="903" d="M516 898v-897h-127v896h-294v126h715v-125h-294z" />
<glyph unicode="&#x443;" horiz-adv-x="1185" d="M1041 1024v-933q-6 -233 -115 -338t-347 -101q-117 2 -206.5 23t-173.5 68l15 103q85 -44 170 -62.5t195 -17.5q174 1 249 65.5t88 229.5v48q-65 -48 -149 -78t-173 -31q-232 -1 -343.5 133.5t-111.5 412.5v478h129v-478q0 -221 78.5 -323t265.5 -102q74 0 154.5 27.5 t144.5 69.5v806h130z" />
<glyph unicode="&#x444;" horiz-adv-x="1945" d="M1038 1434v-485q57 42 133.5 66.5t155.5 24.5q229 0 350 -126t122 -395q1 -268 -122.5 -401.5t-350.5 -133.5q-156 1 -288 92v-440h-129v440q-132 -91 -288 -92q-227 0 -350.5 133.5t-122.5 401.5q1 269 122 395t350 126q79 0 155.5 -24.5t133.5 -66.5v485h129zM909 192 v630q-48 47 -124 73t-152 26q-190 0 -272.5 -100t-82.5 -302q0 -412 355 -412q76 0 151.5 23t124.5 62zM1038 822v-630q49 -39 124.5 -62t151.5 -23q354 0 354 412q0 202 -82 302t-272 100q-76 0 -152 -26t-124 -73z" />
<glyph unicode="&#x445;" horiz-adv-x="1030" d="M936 0h-152l-274 411l-263 -411h-152l341 516l-341 508h153l276 -415l260 415h152l-339 -520z" />
<glyph unicode="&#x446;" horiz-adv-x="1284" d="M1159 -182h-125v182h-858v1024h129v-899h565v899h129v-899h160v-307z" />
<glyph unicode="&#x447;" horiz-adv-x="1067" d="M890 0h-128v362q-48 -34 -126 -56.5t-146 -21.5q-200 1 -283.5 95t-83.5 294v351h128v-325q0 -147 53 -215t199 -74q61 -7 139 16.5t119 58.5v539h129v-1024z" />
<glyph unicode="&#x448;" horiz-adv-x="1763" d="M176 0v1024h129v-897h512v897h129v-897h512v897h128v-1024h-1410z" />
<glyph unicode="&#x449;" horiz-adv-x="1871" d="M1747 -182h-126v182h-1445v1024h129v-899h512v899h129v-899h512v899h128v-900h161v-306z" />
<glyph unicode="&#x44a;" horiz-adv-x="1196" d="M478 573h270q136 0 218.5 -82t82.5 -210t-83 -209t-219 -80h-397v907h-205v125h333v-451zM478 118h266q75 0 125.5 45.5t50.5 118.5t-50 119.5t-126 46.5h-266v-330z" />
<glyph unicode="&#x44b;" horiz-adv-x="1380" d="M1205 1024v-1024h-124v1024h124zM306 573h270q136 0 218.5 -82t82.5 -210t-83 -209t-219 -80h-399v1032h130v-451zM306 118h266q75 0 125.5 45.5t50.5 118.5t-50 119.5t-126 46.5h-266v-330z" />
<glyph unicode="&#x44c;" horiz-adv-x="1024" d="M306 573h270q136 0 218.5 -82t82.5 -210t-83 -209t-219 -80h-399v1032h130v-451zM306 118h266q75 0 125.5 45.5t50.5 118.5t-50 119.5t-126 46.5h-266v-330z" />
<glyph unicode="&#x44d;" horiz-adv-x="1144" d="M229 835l-91 91q145 115 331 115q143 0 265 -70.5t193 -192t71 -265.5t-71 -266t-193 -192t-265 -70q-183 0 -329 114l91 91q106 -79 238 -79q149 0 259.5 97t128.5 242h-425v125h425q-17 145 -127.5 242.5t-260.5 97.5q-133 0 -240 -80z" />
<glyph unicode="&#x44e;" horiz-adv-x="1732" d="M304 575h229q22 197 171.5 331t351.5 134q143 0 265 -70.5t193.5 -192t71.5 -265.5t-71.5 -266t-193.5 -192t-265 -70q-203 0 -352.5 134t-170.5 332h-229v-450h-128v1024h128v-449zM1056 110q167 0 284 117t117 285t-117 285t-284 117t-284 -117t-117 -285t117 -285 t284 -117z" />
<glyph unicode="&#x44f;" horiz-adv-x="1089" d="M914 -1h-127v452h-185l-297 -451h-145l303 460q-108 22 -171.5 96t-63.5 181q0 128 83 207.5t219 78.5h384v-1024zM787 898h-256q-75 0 -125 -43.5t-50 -116.5q0 -75 49.5 -119t125.5 -44h256v323z" />
<glyph unicode="&#x451;" horiz-adv-x="1290" d="M466 1297q-35 0 -60.5 25t-25.5 60t25.5 60.5t60.5 25.5q36 0 60.5 -25t24.5 -61q0 -35 -24.5 -60t-60.5 -25zM894 1297q-35 0 -60 25t-25 60t25 60.5t60 25.5q36 0 61 -25.5t25 -60.5t-25 -60t-61 -25zM982 200l92 -89q-136 -127 -379 -127q-144 1 -268 65t-201.5 186.5 t-77.5 276.5q0 143 70.5 264.5t192 192.5t265.5 71q207 0 347 -130q102 -95 125 -215q21 -113 -44 -175q-49 -47 -137 -47h-674q0 -157 117 -262t281 -105q190 0 291 94zM295 591h622q71 0 89 53.5t-21 116.5q-37 67 -117.5 113.5t-191.5 46.5q-154 0 -262.5 -97 t-118.5 -233z" />
<glyph unicode="&#x2000;" horiz-adv-x="927" />
<glyph unicode="&#x2001;" horiz-adv-x="1855" />
<glyph unicode="&#x2002;" horiz-adv-x="927" />
<glyph unicode="&#x2003;" horiz-adv-x="1855" />
<glyph unicode="&#x2004;" horiz-adv-x="618" />
<glyph unicode="&#x2005;" horiz-adv-x="463" />
<glyph unicode="&#x2006;" horiz-adv-x="309" />
<glyph unicode="&#x2007;" horiz-adv-x="309" />
<glyph unicode="&#x2008;" horiz-adv-x="231" />
<glyph unicode="&#x2009;" horiz-adv-x="371" />
<glyph unicode="&#x200a;" horiz-adv-x="103" />
<glyph unicode="&#x2010;" horiz-adv-x="790" d="M688 515h-586v125h586v-125z" />
<glyph unicode="&#x2011;" horiz-adv-x="790" d="M688 515h-586v125h586v-125z" />
<glyph unicode="&#x2012;" horiz-adv-x="790" d="M688 515h-586v125h586v-125z" />
<glyph unicode="&#x2013;" horiz-adv-x="1024" d="M922 487h-820v124h820v-124z" />
<glyph unicode="&#x2014;" horiz-adv-x="1339" d="M1237 487h-1135v124h1135v-124z" />
<glyph unicode="&#x2018;" d="M270 1451q-49 -36 -69 -79q31 -5 51.5 -28.5t20.5 -55.5q0 -36 -25 -60.5t-60 -24.5q-36 0 -61 24.5t-25 60.5q0 25 8 50.5t25.5 52t52.5 43.5t82 17z" />
<glyph unicode="&#x2019;" d="M190 1453q35 0 60 -25.5t25 -60.5q0 -14 -3 -31t-13.5 -41.5t-27 -43.5t-49 -33t-74.5 -14q49 36 69 79q-31 5 -51.5 28.5t-20.5 55.5q0 35 25 60.5t60 25.5z" />
<glyph unicode="&#x201a;" d="M190 148q35 0 60 -25t25 -60q0 -25 -8 -50.5t-25 -52t-52 -43.5t-82 -17q47 35 69 79q-31 5 -51.5 28.5t-20.5 55.5q0 35 25 60t60 25z" />
<glyph unicode="&#x201c;" horiz-adv-x="624" d="M270 1453q-48 -36 -69 -80q31 -5 51.5 -28.5t20.5 -55.5q0 -35 -25 -60t-60 -25t-60.5 25t-25.5 60q0 18 6 41t21.5 53t52 50t88.5 20zM518 1453q-46 -35 -68 -80q31 -5 51.5 -28.5t20.5 -55.5q0 -35 -25.5 -60t-60.5 -25t-60 25t-25 60q0 14 3 31t13.5 41.5t27 44 t49 33.5t74.5 14z" />
<glyph unicode="&#x201d;" horiz-adv-x="632" d="M190 1453q35 0 60 -25.5t25 -60.5q0 -14 -3 -31t-13.5 -41.5t-27 -43.5t-49 -33t-74.5 -14q48 36 69 80q-31 5 -51.5 28t-20.5 55q0 35 25 60.5t60 25.5zM439 1453q35 0 60 -25.5t25 -60.5q0 -14 -3 -31t-13.5 -41.5t-27 -43.5t-49 -33t-74.5 -14q46 35 68 80 q-31 5 -51.5 28t-20.5 55q0 35 25.5 60.5t60.5 25.5z" />
<glyph unicode="&#x201e;" horiz-adv-x="624" d="M190 153q35 0 60 -25.5t25 -60.5q0 -14 -3 -30.5t-13.5 -41t-27 -43.5t-49 -33t-74.5 -14q47 35 69 79q-31 5 -51.5 28t-20.5 55q0 35 25 60.5t60 25.5zM439 153q35 0 60 -25.5t25 -60.5q0 -14 -3 -30.5t-13.5 -41t-27 -43.5t-49 -33t-74.5 -14q46 34 68 79 q-31 5 -51.5 28t-20.5 55q0 35 25.5 60.5t60.5 25.5z" />
<glyph unicode="&#x2020;" horiz-adv-x="763" d="M447 1023h215v-126h-215v-1012h-128v1012h-217v126h217v382h128v-382z" />
<glyph unicode="&#x2021;" horiz-adv-x="763" d="M447 1023h215v-126h-215v-504h214v-125h-214v-383h-128v383h-216v125h216v504h-217v126h217v382h128v-382z" />
<glyph unicode="&#x2022;" horiz-adv-x="739" d="M370 623q8 0 8 -7q0 -8 -8 -8q-9 0 -9 8q0 7 9 7z" />
<glyph unicode="&#x2026;" horiz-adv-x="1173" d="M188 150q35 0 60 -25.5t25 -60.5q0 -36 -24.5 -60t-60.5 -24t-61 24t-25 60q0 35 25.5 60.5t60.5 25.5zM587 150q35 0 60 -25.5t25 -60.5q0 -36 -24.5 -60t-60.5 -24t-61 24t-25 60q0 35 25.5 60.5t60.5 25.5zM986 150q35 0 60 -25.5t25 -60.5q0 -36 -24.5 -60t-60.5 -24 t-60.5 24t-24.5 60q0 35 25 60.5t60 25.5z" />
<glyph unicode="&#x202f;" horiz-adv-x="371" />
<glyph unicode="&#x2039;" horiz-adv-x="546" d="M445 737l-246 -165l246 -163v-139l-343 245v116l343 245v-139z" />
<glyph unicode="&#x203a;" horiz-adv-x="546" d="M445 631v-116l-343 -245v139l246 163l-246 165v139z" />
<glyph unicode="&#x205f;" horiz-adv-x="463" />
<glyph unicode="&#x20ac;" horiz-adv-x="1755" d="M1117 526h-504q60 -184 217.5 -300t357.5 -116q206 0 366 121l90 -91q-199 -158 -456 -158q-253 0 -451 153t-262 391h-337l93 92h226q-7 56 -7 99q0 46 6 91h-315l95 91h237q62 241 261 397t454 156q257 0 459 -162l-91 -90q-162 123 -368 123q-208 0 -367 -115 t-214 -309h882l-91 -91h-810q-5 -36 -5 -91q0 -54 7 -99h618z" />
<glyph unicode="&#x2122;" horiz-adv-x="1824" d="M1723 602h-129v659l-336 -420l-335 420v-659h-130v832h142l323 -412l324 412h141v-832zM714 1308h-241v-706h-129v706h-242v126h612v-126z" />
<glyph unicode="&#x25ca;" horiz-adv-x="1228" />
<glyph unicode="&#xe000;" horiz-adv-x="1024" d="M0 1024h1024v-1024h-1024v1024z" />
</font>
</defs>
</svg>
